<?xml version="1.0" encoding="UTF-8"?>
<!DOCTYPE svg PUBLIC "-//W3C//DTD SVG 1.1//EN" "http://www.w3.org/Graphics/SVG/1.1/DTD/svg11.dtd">
<!-- Creator: CorelDRAW -->
<svg xmlns="http://www.w3.org/2000/svg" xml:space="preserve" width="2048px" height="2048px" style="shape-rendering:geometricPrecision; text-rendering:geometricPrecision; image-rendering:optimizeQuality; fill-rule:evenodd; clip-rule:evenodd"
viewBox="0 0 2048 2048"
 xmlns:xlink="http://www.w3.org/1999/xlink">
 <defs>
  <style type="text/css">
   <![CDATA[
    .fil2 {fill:none}
    .fil1 {fill:#C62828}
    .fil10 {fill:#D84315}
    .fil0 {fill:#E53935}
    .fil9 {fill:#E64A19}
    .fil15 {fill:#FF9300}
    .fil13 {fill:#FFA000}
    .fil14 {fill:#FFA100}
    .fil12 {fill:#FFB300}
    .fil5 {fill:#FFD8B5}
    .fil4 {fill:#FFE1C7}
    .fil3 {fill:#795548;fill-rule:nonzero}
    .fil8 {fill:#90A4AE;fill-rule:nonzero}
    .fil6 {fill:#BA9773;fill-rule:nonzero}
    .fil7 {fill:#D84315;fill-rule:nonzero}
    .fil11 {fill:#FFB300;fill-rule:nonzero}
   ]]>
  </style>
   <clipPath id="id0">
    <path d="M1024 -0.0011811c565.541,0 1024,458.461 1024,1024 0,565.541 -458.461,1024 -1024,1024 -565.541,0 -1024,-458.461 -1024,-1024 0,-565.541 458.461,-1024 1024,-1024z"/>
   </clipPath>
 </defs>
 <g id="Layer_x0020_1">
  <metadata id="CorelCorpID_0Corel-Layer"/>
  <path class="fil0" d="M1024 -0.0011811c565.541,0 1024,458.461 1024,1024 0,565.541 -458.461,1024 -1024,1024 -565.541,0 -1024,-458.461 -1024,-1024 0,-565.541 458.461,-1024 1024,-1024z"/>
  <g style="clip-path:url(#id0)">
   <g id="_517131928">
    <g>
     <polygon id="_4899595441" class="fil1" points="1529.51,598.01 2665.39,1733.89 2666.37,1735.09 2667.11,1736.39 2667.64,1737.81 2668,1739.4 2668.22,1741.17 2668.33,1743.16 2668.38,1745.41 2668.39,1747.95 1532.51,612.064 1532.5,609.53 1532.45,607.281 1532.34,605.286 1532.12,603.513 1531.76,601.93 1531.23,600.507 1530.49,599.211 "/>
     <polygon id="_489959904" class="fil1" points="1532.51,612.064 2668.39,1747.95 2677.77,1855.01 1541.89,719.123 "/>
     <polygon id="_489961392" class="fil1" points="1578.54,737.22 2714.43,1873.1 2715.45,1874.38 2716.38,1875.73 2717.2,1877.15 2717.92,1878.61 2718.53,1880.12 2719.04,1881.67 2719.42,1883.26 2719.69,1884.88 2719.85,1886.51 2719.88,1888.16 1584,752.282 1583.96,750.631 1583.81,748.994 1583.54,747.379 1583.15,745.792 1582.65,744.239 1582.04,742.727 1581.32,741.264 1580.5,739.853 1579.57,738.503 "/>
     <polygon id="_489961200" class="fil1" points="1584,752.282 2719.88,1888.16 2719.88,2572.36 1584,1436.48 "/>
     <polygon id="_489961008" class="fil1" points="1584,1436.48 2719.88,2572.36 2719.76,2574.66 2719.42,2576.88 2718.87,2579.03 2718.12,2581.08 2717.17,2583.04 2716.05,2584.89 2714.76,2586.61 2713.32,2588.2 2711.73,2589.65 2710,2590.94 2708.15,2592.06 2706.2,2593 2704.14,2593.76 2701.99,2594.31 2699.77,2594.65 2697.48,2594.76 1561.6,1458.88 1563.89,1458.77 1566.11,1458.43 1568.26,1457.87 1570.31,1457.12 1572.27,1456.18 1574.12,1455.06 1575.84,1453.77 1577.44,1452.32 1578.88,1450.73 1580.17,1449.01 1581.29,1447.16 1582.24,1445.2 1582.99,1443.14 1583.54,1441 1583.88,1438.77 "/>
     <polygon id="_489961104" class="fil1" points="1561.6,1458.88 2697.48,2594.76 2696.28,2594.73 2695.1,2594.64 2693.94,2594.49 2692.79,2594.27 2691.67,2594 2690.57,2593.68 2689.5,2593.3 2688.45,2592.87 1552.57,1456.99 1553.62,1457.42 1554.69,1457.8 1555.79,1458.12 1556.91,1458.39 1558.06,1458.6 1559.22,1458.76 1560.4,1458.85 "/>
     <polygon id="_489961416" class="fil1" points="1552.57,1456.99 2688.45,2592.87 2601.98,2559.83 1466.1,1423.95 "/>
     <polygon id="_489961224" class="fil1" points="1466.1,1423.95 2601.98,2559.83 2595.94,2557.58 2589.87,2555.42 2583.77,2553.36 2577.64,2551.4 2571.49,2549.54 2565.31,2547.77 2559.1,2546.1 2552.88,2544.52 2546.63,2543.04 2540.36,2541.66 2534.08,2540.37 2527.78,2539.18 2521.46,2538.08 2515.13,2537.08 2508.78,2536.17 2502.42,2535.36 2496.05,2534.64 2489.67,2534.02 2483.28,2533.49 2476.89,2533.06 2470.49,2532.71 2464.08,2532.47 2457.68,2532.31 2451.27,2532.25 2444.86,2532.29 2438.45,2532.41 2432.05,2532.63 2425.64,2532.94 2419.25,2533.34 2412.85,2533.84 2406.47,2534.43 2400.09,2535.11 1264.21,1399.22 1270.59,1398.55 1276.97,1397.96 1283.36,1397.46 1289.76,1397.06 1296.16,1396.75 1302.57,1396.53 1308.98,1396.4 1315.39,1396.37 1321.8,1396.43 1328.2,1396.58 1334.61,1396.83 1341.01,1397.17 1347.4,1397.61 1353.79,1398.14 1360.17,1398.76 1366.54,1399.48 1372.9,1400.29 1379.24,1401.2 1385.58,1402.2 1391.9,1403.3 1398.2,1404.49 1404.48,1405.78 1410.75,1407.16 1417,1408.64 1423.22,1410.21 1429.43,1411.89 1435.61,1413.65 1441.76,1415.52 1447.89,1417.48 1453.99,1419.54 1460.06,1421.7 "/>
     <polygon id="_489961680" class="fil1" points="1264.21,1399.22 2400.09,2535.11 2393.71,2535.88 2387.34,2536.75 2380.98,2537.7 2374.64,2538.75 2368.31,2539.9 2362,2541.13 2355.71,2542.45 2349.43,2543.87 2343.18,2545.38 2336.95,2546.97 2330.74,2548.66 2324.56,2550.44 2318.4,2552.31 2312.27,2554.27 2306.17,2556.32 2300.1,2558.46 2294.06,2560.69 2288.05,2563 2282.08,2565.41 2276.14,2567.91 2270.23,2570.49 2264.37,2573.16 2258.54,2575.93 2252.76,2578.78 2247.02,2581.71 2241.31,2584.74 2235.66,2587.85 2230.05,2591.05 2224.49,2594.34 2218.97,2597.72 2213.5,2601.18 2208.09,2604.73 1072.21,1468.85 1077.62,1465.3 1083.09,1461.84 1088.6,1458.46 1094.17,1455.17 1099.78,1451.97 1105.43,1448.86 1111.13,1445.83 1116.88,1442.89 1122.66,1440.04 1128.49,1437.28 1134.35,1434.61 1140.26,1432.02 1146.19,1429.53 1152.17,1427.12 1158.18,1424.8 1164.22,1422.58 1170.29,1420.44 1176.39,1418.39 1182.52,1416.43 1188.68,1414.56 1194.86,1412.78 1201.07,1411.09 1207.3,1409.49 1213.55,1407.99 1219.83,1406.57 1226.12,1405.25 1232.43,1404.01 1238.76,1402.87 1245.1,1401.82 1251.46,1400.86 1257.83,1400 "/>
     <polygon id="_489961992" class="fil1" points="1072.21,1468.85 2208.09,2604.73 2172.31,2628.59 1036.43,1492.7 "/>
     <polygon id="_489962064" class="fil1" points="1036.43,1492.7 2172.31,2628.59 2170.8,2629.51 2169.25,2630.3 2167.67,2630.95 2166.06,2631.49 2164.42,2631.89 2162.77,2632.16 2161.12,2632.32 2159.46,2632.34 2157.81,2632.25 2156.17,2632.04 2154.56,2631.7 2152.97,2631.25 2151.42,2630.69 2149.91,2630.01 2148.44,2629.21 2147.04,2628.31 1011.16,1492.42 1012.56,1493.33 1014.03,1494.13 1015.54,1494.81 1017.09,1495.37 1018.68,1495.82 1020.29,1496.16 1021.93,1496.37 1023.58,1496.46 1025.24,1496.43 1026.89,1496.28 1028.54,1496.01 1030.18,1495.6 1031.79,1495.07 1033.37,1494.41 1034.92,1493.62 "/>
     <polygon id="_489962040" class="fil1" points="1011.16,1492.42 2147.04,2628.31 2111.67,2604.73 975.791,1468.85 "/>
     <polygon id="_489961560" class="fil1" points="975.791,1468.85 2111.67,2604.73 2106.26,2601.18 2100.79,2597.72 2095.28,2594.34 2089.71,2591.05 2084.1,2587.85 2078.45,2584.74 2072.75,2581.71 2067,2578.78 2061.22,2575.93 2055.39,2573.16 2049.53,2570.49 2043.63,2567.91 2037.69,2565.41 2031.71,2563 2025.7,2560.69 2019.66,2558.46 2013.59,2556.32 2007.49,2554.27 2001.36,2552.31 1995.2,2550.44 1989.02,2548.66 1982.81,2546.97 1976.58,2545.38 1970.33,2543.87 1964.05,2542.45 1957.76,2541.13 1951.45,2539.9 1945.12,2538.75 1938.78,2537.7 1932.42,2536.75 1926.05,2535.88 1919.67,2535.11 783.787,1399.22 790.169,1400 796.54,1400.86 802.896,1401.82 809.24,1402.87 815.568,1404.01 821.879,1405.25 828.173,1406.57 834.447,1407.99 840.7,1409.49 846.931,1411.09 853.139,1412.78 859.322,1414.56 865.479,1416.43 871.609,1418.39 877.711,1420.44 883.783,1422.58 889.823,1424.8 895.831,1427.12 901.805,1429.53 907.744,1432.02 913.647,1434.61 919.511,1437.28 925.337,1440.04 931.123,1442.89 936.865,1445.83 942.566,1448.86 948.222,1451.97 953.833,1455.17 959.396,1458.46 964.911,1461.84 970.377,1465.3 "/>
     <polygon id="_489962184" class="fil1" points="783.787,1399.22 1919.67,2535.11 1913.29,2534.43 1906.91,2533.84 1900.52,2533.34 1894.12,2532.94 1887.72,2532.63 1881.31,2532.41 1874.9,2532.29 1868.49,2532.25 1862.08,2532.31 1855.68,2532.47 1849.27,2532.71 1842.87,2533.06 1836.48,2533.49 1830.09,2534.02 1823.71,2534.64 1817.34,2535.36 1810.98,2536.17 1804.64,2537.08 1798.3,2538.08 1791.99,2539.18 1785.68,2540.37 1779.4,2541.66 1773.13,2543.04 1766.88,2544.52 1760.66,2546.1 1754.46,2547.77 1748.28,2549.54 1742.12,2551.4 1736,2553.36 1729.89,2555.42 1723.82,2557.58 1717.78,2559.83 581.902,1423.95 587.943,1421.7 594.013,1419.54 600.114,1417.48 606.241,1415.52 612.395,1413.65 618.574,1411.89 624.778,1410.21 631.003,1408.64 637.25,1407.16 643.517,1405.78 649.802,1404.49 656.104,1403.3 662.423,1402.2 668.756,1401.2 675.103,1400.29 681.462,1399.48 687.832,1398.76 694.211,1398.14 700.599,1397.61 706.992,1397.17 713.392,1396.83 719.796,1396.58 726.204,1396.43 732.612,1396.37 739.021,1396.4 745.43,1396.53 751.836,1396.75 758.239,1397.06 764.636,1397.46 771.028,1397.96 777.412,1398.55 "/>
     <polygon id="_489961464" class="fil1" points="581.902,1423.95 1717.78,2559.83 1630.28,2593.29 494.399,1457.41 "/>
     <polygon id="_489961776" class="fil1" points="494.399,1457.41 1630.28,2593.29 1628.1,2594 1625.9,2594.48 1623.7,2594.73 1621.51,2594.76 1619.34,2594.57 1617.22,2594.19 1615.14,2593.6 1613.14,2592.81 1611.22,2591.84 1609.4,2590.69 1607.7,2589.37 471.815,1453.49 473.522,1454.81 475.343,1455.96 477.261,1456.93 479.263,1457.71 481.334,1458.3 483.46,1458.69 485.626,1458.87 487.817,1458.84 490.02,1458.59 492.219,1458.12 "/>
    </g>
    <path id="_517132552" class="fil1" d="M791.577 554.723c74.83,8.50276 224.29,75.652 238.658,75.652 68.9044,-40.6571 148.202,-66.6249 227.643,-75.652 84.9745,-9.6567 171.338,2.9374 251.116,33.3118 23.3705,8.89843 23.511,9.69331 23.511,24.0295l9.38032 107.059 28.5284 12.1595c8.62678,3.69331 13.741,12.1618 13.5827,21l0 684.2c0,12.3709 -10.0299,22.3996 -22.4008,22.3996 -3.2126,0 -6.26693,-0.677953 -9.02835,-1.89567l-86.4698 -33.0378c-64.2662,-24.554 -133.931,-32.4614 -201.885,-24.724 -68.1284,7.75749 -134.525,31.304 -192.004,69.6225l-35.7839 23.8559c-7.9004,5.26654 -17.9291,4.85197 -25.2685,-0.279921l-35.3658 -23.576c-57.4784,-38.3185 -123.875,-61.865 -192.004,-69.6225 -67.9536,-7.73741 -137.619,0.170079 -201.885,24.724l-87.5032 33.4583c-11.5559,4.41496 -24.5055,-1.37362 -28.9205,-12.9295 -1.05709,-2.76969 -1.52717,-5.61733 -1.4752,-8.40946l0 -684.194c0,-9.81142 6.30827,-18.15 15.0898,-21.1795l27.0213 -11.5713 10.9984 0 -0.162992 -107.059c0,-14.3362 0.140551,-15.1311 23.511,-24.0295 79.7776,-30.3744 166.141,-42.9685 251.116,-33.3118z"/>
   </g>
  </g>
  <path class="fil2" d="M1024 -0.0011811c565.541,0 1024,458.461 1024,1024 0,565.541 -458.461,1024 -1024,1024 -565.541,0 -1024,-458.461 -1024,-1024 0,-565.541 458.461,-1024 1024,-1024z"/>
  <path class="fil3" d="M506.115 719.123l-27.0213 11.5713c-8.7815,3.02953 -15.0898,11.3681 -15.0898,21.1795l0 684.194c-0.0519685,2.79213 0.418111,5.63977 1.4752,8.40946 4.41496,11.5559 17.3646,17.3445 28.9205,12.9295l-0.00826772 -0.0212599 87.5115 -33.437c64.2662,-24.554 133.931,-32.4614 201.885,-24.724 68.1284,7.75749 134.525,31.304 192.004,69.6225l35.3658 23.576c7.33938,5.13189 17.3681,5.54646 25.2685,0.279921l35.7839 -23.8559c57.4784,-38.3185 123.875,-61.865 192.004,-69.6225 67.9536,-7.73741 137.619,0.170079 201.885,24.724l86.4698 33.0378c2.76142,1.21772 5.81575,1.89567 9.02835,1.89567 12.3709,0 22.4008,-10.0287 22.4008,-22.3996l0 -684.2c0.158268,-8.8382 -4.95591,-17.3067 -13.5827,-21l-8.81812 20.5914 8.74961 -20.563 -28.4599 -12.1878 -1035.77 0z"/>
  <path class="fil4" d="M1526.65 1382.43c4.65945,4.22953 4.75867,-30.0437 4.75867,-53.4933l1.0937 -716.869c0,-14.3362 -0.140551,-15.1311 -23.511,-24.0295 -79.7776,-30.3744 -166.141,-42.9685 -251.116,-33.3118 -79.441,9.02717 -158.739,34.9949 -227.643,75.652l-5.50748 3.24922 0 788.3c166.996,-96.5824 318.662,-134.254 501.925,-39.4973z"/>
  <path class="fil5" d="M522.802 1382.43c-4.65945,4.22953 -4.75867,-30.0437 -4.75867,-53.4933l-1.0937 -716.869c0,-14.3362 0.140551,-15.1311 23.511,-24.0295 79.7776,-30.3744 166.141,-42.9685 251.116,-33.3118 79.441,9.02717 158.739,34.9949 227.643,75.652l5.50748 3.24922 0 788.3c-166.996,-96.5824 -318.662,-134.254 -501.925,-39.4973z"/>
  <path class="fil6" d="M617.018 1160.38c-5.67756,2.41654 -8.32087,8.97875 -5.90552,14.6563 2.41536,5.67756 8.97875,8.32205 14.6563,5.90552 51.5315,-22.0666 108.387,-28.0855 163.51,-21.8221 60.0201,6.81969 117.898,28.2213 164.589,59.3481 5.14607,3.42992 12.1004,2.03977 15.5303,-3.1063 3.43111,-5.14607 2.03977,-12.1004 -3.1063,-15.5315 -49.5095,-33.0071 -110.895,-55.7008 -174.562,-62.9351 -58.7056,-6.67205 -119.434,-0.184252 -174.711,23.4851z"/>
  <path class="fil6" d="M617.018 1076.21c-5.67756,2.41654 -8.32087,8.97875 -5.90552,14.6563 2.41536,5.67756 8.97875,8.32205 14.6563,5.90552 51.5315,-22.0666 108.387,-28.0855 163.51,-21.8221 60.0201,6.81969 117.898,28.2213 164.589,59.3481 5.14607,3.42992 12.1004,2.03977 15.5303,-3.1063 3.43111,-5.14607 2.03977,-12.1004 -3.1063,-15.5315 -49.5095,-33.0071 -110.895,-55.7008 -174.562,-62.9351 -58.7056,-6.67205 -119.434,-0.184252 -174.711,23.4851z"/>
  <path class="fil6" d="M617.018 992.05c-5.67756,2.41654 -8.32087,8.97875 -5.90552,14.6563 2.41536,5.67756 8.97875,8.32205 14.6563,5.90552 51.5315,-22.0666 108.387,-28.0855 163.51,-21.8221 60.0201,6.81969 117.898,28.2213 164.589,59.3481 5.14607,3.42992 12.1004,2.03977 15.5303,-3.1063 3.43111,-5.14607 2.03977,-12.1004 -3.1063,-15.5315 -49.5095,-33.0071 -110.895,-55.7008 -174.562,-62.9351 -58.7056,-6.67205 -119.434,-0.184252 -174.711,23.4851z"/>
  <path class="fil6" d="M617.018 907.887c-5.67756,2.41654 -8.32087,8.97875 -5.90552,14.6563 2.41536,5.67756 8.97875,8.32205 14.6563,5.90552 51.5315,-22.0666 108.387,-28.0855 163.51,-21.8221 60.0201,6.81969 117.898,28.2213 164.589,59.3481 5.14607,3.42992 12.1004,2.03858 15.5303,-3.1063 3.43111,-5.14607 2.03977,-12.1004 -3.1063,-15.5315 -49.5095,-33.0071 -110.895,-55.7008 -174.562,-62.9351 -58.7056,-6.67205 -119.434,-0.184252 -174.711,23.4851z"/>
  <path class="fil6" d="M617.018 823.724c-5.67756,2.41654 -8.32087,8.97875 -5.90552,14.6563 2.41536,5.67756 8.97875,8.32205 14.6563,5.90552 51.5315,-22.0666 108.387,-28.0855 163.51,-21.8221 60.0201,6.81969 117.898,28.2213 164.589,59.3481 5.14607,3.42992 12.1004,2.03858 15.5303,-3.1063 3.43111,-5.14607 2.03977,-12.1004 -3.1063,-15.5315 -49.5095,-33.0071 -110.895,-55.7008 -174.562,-62.9351 -58.7056,-6.67205 -119.434,-0.184252 -174.711,23.4851z"/>
  <path class="fil6" d="M617.018 739.561c-5.67756,2.41654 -8.32087,8.97875 -5.90552,14.6563 2.41536,5.67756 8.97875,8.32205 14.6563,5.90552 51.5315,-22.0666 108.387,-28.0855 163.51,-21.8221 60.0201,6.81969 117.898,28.2213 164.589,59.3481 5.14607,3.42992 12.1004,2.03858 15.5303,-3.1063 3.43111,-5.14607 2.03977,-12.1004 -3.1063,-15.5315 -49.5095,-33.0071 -110.895,-55.7008 -174.562,-62.9351 -58.7056,-6.67205 -119.434,-0.184252 -174.711,23.4851z"/>
  <path class="fil7" d="M1200.09 834.458c14.8784,13.265 30.0815,26.8158 64.6902,28.7504 0.836221,0.00708662 1.67008,0.153543 2.47087,0.457087 3.8315,1.45039 5.43898,5.91733 3.59174,9.97678l-0.0165354 -0.00708662 -28.4776 62.5524c-0.351969,0.93189 -0.875198,1.82953 -1.57323,2.64331 -2.92914,3.42284 -7.80473,4.07244 -10.8886,1.45158l0.0153543 -0.0177165c-26.1839,-22.2473 -47.6469,-22.4232 -68.9197,-22.5969 -20.9032,-0.17126 -41.6445,-0.343701 -66.3142,-17.7307 -2.90315,-1.86496 -3.96378,-5.7626 -2.33386,-9.34489l0.0165354 0.00590552 36.5823 -80.354c1.34173,-3.5374 4.9252,-5.98701 8.61497,-5.66457l-0.00354331 0.0165354c32.2181,2.82402 47.23,16.2083 62.5453,29.8618z"/>
  <path class="fil8" d="M1278.61 893.327c-1.3937,-0.490158 -3.00118,-0.0814961 -4.15512,1.05709 -2.09291,2.09646 -1.59213,5.41772 0.934253,6.33898l0.407481 0.146457 0.408662 0.147638 0.4063 0.147638 0.403937 0.15 0.405118 0.151181 0.402756 0.151181 0.401575 0.153543 0.400394 0.153543 0.399213 0.154725 0.399213 0.157087 0.396851 0.155906 0.39567 0.158268 0.39567 0.159449 0.394488 0.16063 0.393307 0.161811 0.392126 0.161811 0.34252 0.144095c2.86181,1.19055 6.18426,-1.67835 5.55237,-4.80118 -0.242126,-1.13622 -0.948426,-2.02914 -1.99843,-2.46496l-0.34252 -0.144095 -0.413386 -0.17126 -0.413386 -0.170079 -0.415748 -0.168898 -0.415748 -0.167717 -0.416929 -0.166536 -0.418111 -0.165354 -0.419292 -0.164173 -0.420473 -0.162992 -0.421654 -0.162992 -0.422835 -0.16063 -0.424016 -0.159449 -0.424016 -0.158268 -0.426378 -0.157087 -0.427559 -0.155906 -0.427559 -0.154725 -0.42874 -0.154725zm62.6859 69.1489c1.24488,2.85827 5.40709,2.6126 6.9378,-0.416929 0.5563,-1.09843 0.609449,-2.32559 0.155906,-3.36496l-0.127559 -0.291733 -0.18189 -0.414567 -0.184252 -0.413386 -0.184252 -0.413386 -0.186614 -0.411024 -0.186614 -0.409843 -0.188977 -0.409843 -0.188977 -0.407481 -0.188977 -0.407481 -0.19252 -0.405118 -0.191339 -0.405118 -0.193701 -0.402756 -0.194882 -0.402756 -0.194882 -0.401575 -0.197244 -0.400394 -0.197244 -0.399213 -0.198425 -0.396851 -0.0590552 -0.116929c-1.63937,-3.17008 -6.50906,-2.0126 -7.24725,1.73032 -0.157087,0.849213 -0.0507874,1.66772 0.314173,2.39173l0.0472441 0.0944883 0.187795 0.377953 0.188977 0.379134 0.185433 0.380315 0.186614 0.381496 0.184252 0.381496 0.184252 0.383859 0.183071 0.38504 0.18189 0.386221 0.180709 0.387402 0.179528 0.388583 0.179528 0.388583 0.177165 0.389764 0.177165 0.390945 0.175984 0.393307 0.174803 0.393307 0.174803 0.39567 0.127559 0.291733zm-14.413 -24.8693c1.9937,2.61496 6.39213,1.11732 6.94725,-2.37638 0.16063,-1.01221 -0.080315,-2.02087 -0.659056,-2.78032l-0.0259843 -0.0354331 -0.256299 -0.336614 -0.257481 -0.335433 -0.259843 -0.335433 -0.259843 -0.334252 -0.261024 -0.333071 -0.262205 -0.330709 -0.264567 -0.330709 -0.264567 -0.329528 -0.264567 -0.325985 -0.265748 -0.327166 -0.269292 -0.327166 -0.26811 -0.323622 -0.269292 -0.323622 -0.271654 -0.323622 -0.271654 -0.320079 -0.272835 -0.320079 -0.275197 -0.318898 -0.227953 -0.264567c-2.15788,-2.43543 -6.40158,-0.761812 -6.82796,2.68937 -0.11811,1.06654 0.158268,2.0504 0.818505,2.81103l0.212599 0.245669 0.257481 0.298819 0.257481 0.301181 0.256299 0.303544 0.253937 0.302362 0.255118 0.304725 0.253937 0.307087 0.250394 0.304725 0.250394 0.308268 0.251575 0.31063 0.249213 0.308268 0.246851 0.311811 0.248032 0.311811 0.245669 0.312992 0.244488 0.315355 0.244488 0.314173 0.243307 0.316536 0.242126 0.318898 0.0259843 0.0354331zm-20.0126 -20.0906c2.20748,1.67126 5.62559,0.164173 6.27284,-2.76378 0.3,-1.4563 -0.154725,-2.81457 -1.24488,-3.65551l-0.0295276 -0.022441 -0.335433 -0.253937 -0.336614 -0.252756 -0.337796 -0.252756 -0.337796 -0.250394 -0.338977 -0.249213 -0.34252 -0.248032 -0.341339 -0.246851 -0.34252 -0.246851 -0.344882 -0.244488 -0.344882 -0.243307 -0.346063 -0.243307 -0.348425 -0.242126 -0.348425 -0.239764 -0.348425 -0.238583 -0.350788 -0.237402 -0.351969 -0.237402 -0.35315 -0.23504 -0.283465 -0.187795c-2.93977,-1.91103 -6.99331,1.27441 -6.04725,4.75867 0.230315,0.810237 0.698032,1.46339 1.38189,1.91693l0.264567 0.175984 0.333071 0.220866 0.330709 0.223229 0.330709 0.22441 0.328347 0.22441 0.328347 0.226772 0.327166 0.226772 0.325985 0.227953 0.324803 0.230315 0.323622 0.230315 0.322441 0.231496 0.322441 0.232677 0.320079 0.233858 0.320079 0.23504 0.320079 0.236221 0.316536 0.236221 0.317717 0.238583 0.315355 0.238583 0.0283465 0.022441z"/>
  <path class="fil8" d="M1273.18 913.757c-1.19764,-0.578741 -2.63268,-0.414567 -3.83977,0.387402 -2.57599,1.76811 -2.60551,5.49331 -0.0413386,6.73229l0.274016 0.132284 0.274016 0.134646 0.274016 0.133465 0.270473 0.134646 0.269292 0.135827 0.269292 0.135827 0.26811 0.138189 0.266929 0.138189 0.264567 0.138189 0.264567 0.13937 0.264567 0.140551 0.262205 0.141732 0.262205 0.142913 0.261024 0.141732 0.257481 0.142913 0.257481 0.145276 0.258662 0.145276 0.256299 0.146457 0.253937 0.146457 0.253937 0.147638 0.251575 0.147638 0.252756 0.15 0.251575 0.15 0.166536 0.100394c2.77914,1.6689 6.55276,-1.11142 6.01418,-4.44331 -0.180709,-1.02638 -0.720473,-1.8626 -1.5874,-2.38229l-0.165354 -0.100394 -0.272835 -0.162992 -0.275197 -0.162992 -0.277559 -0.162992 -0.277559 -0.161811 -0.27874 -0.16063 -0.281103 -0.159449 -0.27874 -0.158268 -0.282284 -0.158268 -0.284646 -0.157087 -0.284646 -0.155906 -0.284646 -0.154725 -0.287008 -0.154725 -0.287008 -0.152362 -0.288189 -0.152362 -0.290551 -0.152362 -0.290551 -0.15 -0.291733 -0.148819 -0.292914 -0.15 -0.294095 -0.146457 -0.295276 -0.147638 -0.295276 -0.145276 -0.296457 -0.144095 -0.298819 -0.144095zm31.689 56.3859c0.229134,1.39488 1.15984,2.42244 2.49449,2.77914 2.78032,0.679134 5.55355,-1.91811 5.11418,-4.80118l-0.011811 -0.068504 -0.0543308 -0.340158 -0.0555119 -0.341339 -0.056693 -0.338977 -0.0578741 -0.337796 -0.0590552 -0.336614 -0.0602363 -0.337796 -0.0614174 -0.335433 -0.0614174 -0.333071 -0.0637796 -0.335433 -0.0649607 -0.334252 -0.0649607 -0.330709 -0.0673229 -0.33189 -0.0673229 -0.33189 -0.068504 -0.329528 -0.0696851 -0.328347 -0.0708662 -0.328347 -0.0732284 -0.328347 -0.0732284 -0.327166 -0.0744095 -0.324803 -0.0744095 -0.323622 -0.0767717 -0.325985 -0.0779528 -0.322441 -0.0779528 -0.32126 -0.0177165 -0.0720473c-0.836221,-3.32244 -5.39646,-3.45355 -7.10316,-0.20315 -0.473622,0.915355 -0.611811,1.92047 -0.376772,2.85591l0.0106299 0.0437008 0.0720473 0.296457 0.0708662 0.296457 0.0708662 0.296457 0.068504 0.298819 0.068504 0.3 0.0673229 0.3 0.0661418 0.298819 0.0649607 0.302362 0.0649607 0.303544 0.0637796 0.303544 0.0614174 0.303544 0.0614174 0.305906 0.0614174 0.307087 0.0590552 0.305906 0.0578741 0.307087 0.0578741 0.309449 0.056693 0.31063 0.0543308 0.309449 0.0555119 0.312992 0.0531496 0.312992 0.0519685 0.311811 0.0519685 0.312992 0.0507874 0.316536 0.0106299 0.068504zm-9.57166 -26.726c0.714567,1.13858 2.02087,1.70906 3.41811,1.52599 2.93858,-0.421654 4.69961,-3.81733 3.19725,-6.21024l-0.0425197 -0.0673229 -0.164173 -0.258662 -0.164173 -0.256299 -0.165354 -0.253937 -0.166536 -0.255118 -0.167717 -0.253937 -0.168898 -0.252756 -0.17126 -0.252756 -0.170079 -0.249213 -0.172441 -0.250394 -0.174803 -0.250394 -0.173622 -0.246851 -0.175984 -0.248032 -0.175984 -0.244488 -0.177165 -0.245669 -0.180709 -0.245669 -0.180709 -0.244488 -0.179528 -0.240945 -0.183071 -0.242126 -0.183071 -0.242126 -0.185433 -0.239764 -0.185433 -0.238583 -0.186614 -0.238583 -0.187795 -0.237402 -0.188977 -0.236221 -0.190158 -0.23504 -0.068504 -0.0850394c-0.858662,-1.0252 -2.16614,-1.44213 -3.55985,-1.12205 -2.94331,0.71693 -4.35473,4.26969 -2.57717,6.47126l0.0496063 0.0614174 0.17126 0.211417 0.168898 0.211417 0.167717 0.212599 0.167717 0.21378 0.167717 0.214961 0.164173 0.21378 0.164173 0.214961 0.162992 0.216142 0.164173 0.219685 0.16063 0.218504 0.159449 0.217323 0.159449 0.219685 0.159449 0.222047 0.157087 0.222047 0.157087 0.222047 0.154725 0.222047 0.153543 0.22441 0.154725 0.225591 0.152362 0.22441 0.15 0.226772 0.15 0.226772 0.15 0.227953 0.148819 0.230315 0.147638 0.229134 0.146457 0.230315 0.0425197 0.0673229z"/>
  <path class="fil8" d="M1262.5 935.607c-1.19764,-0.578741 -2.63268,-0.414567 -3.83977,0.387402 -2.57599,1.76811 -2.60551,5.49331 -0.0413386,6.73229l0.193701 0.0933072 0.19252 0.0944883 0.190158 0.0956694 0.188977 0.0956694 0.186614 0.0956694 0.185433 0.0968505 0.184252 0.0968505 0.183071 0.0992127 0.18189 0.0980316 0.178347 0.0992127 0.178347 0.100394 0.177165 0.101575 0.175984 0.100394 0.172441 0.101575 0.17126 0.101575 0.172441 0.103937 0.170079 0.103937 0.165354 0.102756 0.166536 0.105118 0.166536 0.106299 0.161811 0.105118 0.164173 0.10748 0.161811 0.108662 0.158268 0.106299 0.158268 0.108662 0.155906 0.108662 0.154725 0.108662 0.154725 0.111024 0.152362 0.111024 0.151181 0.111024 0.151181 0.113386 0.148819 0.112205 0.146457 0.112205 0.0625985 0.0484252c2.4874,1.92047 6.38268,-0.27874 6.38504,-3.61063 -0.0129921,-1.13032 -0.466536,-2.12008 -1.31575,-2.77677l-0.0637796 -0.0484252 -0.183071 -0.141732 -0.185433 -0.13937 -0.184252 -0.138189 -0.186614 -0.137008 -0.188977 -0.137008 -0.188977 -0.134646 -0.191339 -0.135827 -0.193701 -0.134646 -0.193701 -0.132284 -0.196063 -0.133465 -0.196063 -0.131102 -0.197244 -0.12874 -0.200788 -0.129921 -0.200788 -0.12874 -0.201969 -0.127559 -0.206693 -0.127559 -0.205512 -0.126378 -0.205512 -0.124016 -0.209055 -0.124016 -0.210236 -0.124016 -0.211417 -0.121654 -0.211417 -0.120473 -0.21378 -0.120473 -0.217323 -0.119291 -0.217323 -0.11811 -0.218504 -0.11811 -0.218504 -0.115748 -0.223229 -0.115748 -0.223229 -0.114567 -0.22441 -0.113386 -0.225591 -0.113386 -0.227953 -0.112205 -0.229134 -0.109843zm12.9697 34.4256c0.184252,1.57677 1.27323,2.75433 2.81339,3.02008 2.63386,0.420473 5.12717,-1.98425 4.84252,-4.68662l-0.0011811 -0.00708662 -0.0248032 -0.225591 -0.0259843 -0.225591 -0.0259843 -0.225591 -0.0271654 -0.22441 -0.0271654 -0.22441 -0.0283465 -0.220866 -0.0271654 -0.223229 -0.0307087 -0.225591 -0.0295276 -0.223229 -0.0307087 -0.220866 -0.0307087 -0.222047 -0.0318898 -0.220866 -0.0318898 -0.220866 -0.0330709 -0.223229 -0.034252 -0.222047 -0.0330709 -0.217323 -0.0354331 -0.220866 -0.0354331 -0.220866 -0.0366142 -0.216142 -0.0366142 -0.219685 -0.0377953 -0.219685 -0.0389764 -0.219685 -0.0389764 -0.216142 -0.0389764 -0.217323 -0.0413386 -0.218504 -0.0413386 -0.21378 -0.0413386 -0.217323 -0.0425197 -0.216142 -0.0437008 -0.216142 -0.0448819 -0.214961 -0.0448819 -0.214961 -0.046063 -0.214961 -0.046063 -0.21378 -0.0472441 -0.212599 -0.0484252 -0.21378 -0.0496063 -0.212599 -0.0141732 -0.0649607c-0.303544,-1.26732 -1.18937,-2.15906 -2.42008,-2.50394 -2.89725,-0.737008 -5.75315,2.11417 -5.08347,5.06575l0.00944883 0.0366142 0.0425197 0.185433 0.0413386 0.184252 0.0413386 0.186614 0.0413386 0.186614 0.0401575 0.186614 0.0389764 0.187795 0.0389764 0.187795 0.0377953 0.188977 0.0377953 0.187795 0.0366142 0.190158 0.0366142 0.19252 0.0354331 0.190158 0.0354331 0.191339 0.034252 0.194882 0.034252 0.19252 0.0330709 0.19252 0.0330709 0.19252 0.0318898 0.199606 0.0318898 0.193701 0.0307087 0.194882 0.0318898 0.199606 0.0295276 0.196063 0.0295276 0.196063 0.0283465 0.199606 0.0295276 0.199606 0.0271654 0.200788 0.0283465 0.200788 0.0259843 0.200788 0.0259843 0.199606 0.0259843 0.201969 0.0259843 0.205512 0.0248032 0.20315 0.0248032 0.204331 0.0236221 0.20315 0.0236221 0.204331 0.022441 0.205512 0.0011811 0.00826772z"/>
  <path class="fil9" d="M1111.1 849.412l147.397 51.3036 12.3284 -27.0803 0.0165354 0.00708662c1.84725,-4.05945 0.239764,-8.52638 -3.59174,-9.97678 -0.800788,-0.303544 -1.63465,-0.45 -2.47087,-0.457087 -34.6087,-1.93465 -49.8118,-15.4854 -64.6902,-28.7504 -15.3154,-13.6536 -30.3272,-27.0378 -62.5453,-29.8618l0.00354331 -0.0165354c-3.68977,-0.322441 -7.27323,2.12717 -8.61497,5.66457l-17.8323 39.1677z"/>
  <path class="fil10" d="M1111.1 849.412l-18.75 41.1863 -0.0165354 -0.00590552c-1.62992,3.58229 -0.569292,7.47993 2.33386,9.34489 24.6697,17.387 45.4111,17.5595 66.3142,17.7307 21.2729,0.173622 42.7359,0.349607 68.9197,22.5969l-0.0153543 0.0177165c3.08386,2.62087 7.95945,1.97126 10.8886,-1.45158 0.698032,-0.81378 1.22126,-1.71142 1.57323,-2.64331l16.1492 -35.4721 -147.397 -51.3036z"/>
  <path class="fil11" d="M1461.88 950.876c1.28976,36.1937 -8.0126,71.4567 -25.1209,102.474 -16.7599,30.391 -41.0303,56.6788 -70.18,75.7418l0.388583 10.9075c0.159449,4.48583 -3.33307,8.64213 -7.80119,9.28229l-72.8162 10.4445 -72.8162 10.4445c-4.46811,0.641339 -8.22048,-2.47559 -8.37993,-6.96142l-0.388583 -10.9075c-30.2044,-10.5496 -56.0918,-29.6433 -74.8359,-54.9402 -19.1327,-25.8201 -30.841,-58.0689 -32.1296,-94.2615 -0.16063,-4.48583 3.33307,-8.64213 7.80119,-9.28347l347.899 -49.9004c4.46811,-0.641339 8.22048,2.47559 8.37993,6.96024z"/>
  <path class="fil12" d="M1286.35 1159.73l-5.83937 -163.904 -0.960237 -26.9563 -6.19016 0.88819 -167.759 24.0626c-4.46811,0.641339 -7.96182,4.79764 -7.80119,9.28347 1.28858,36.1925 12.9969,68.4414 32.1296,94.2615 18.7441,25.2969 44.6315,44.3906 74.8359,54.9402l0.388583 10.9075c0.159449,4.48583 3.91181,7.60276 8.37993,6.96142l72.8162 -10.4445z"/>
  <path class="fil13" d="M1366.58 1129.09c29.1496,-19.063 53.4201,-45.3508 70.18,-75.7418 17.1083,-31.017 26.4107,-66.28 25.1209,-102.474 -0.159449,-4.48465 -3.91181,-7.60158 -8.37993,-6.96024l-53.9835 7.74213 -34.8236 4.99607 -39.3744 5.64685 -45.7678 6.56457 0.960237 26.9563 5.83937 163.904 72.8162 -10.4445c4.46811,-0.640158 7.96064,-4.79646 7.80119,-9.28229l-0.388583 -10.9075z"/>
  <path class="fil14" d="M1286.35 1159.73l-0.677953 -19.0205 -80.9068 11.6055 0.388583 10.898c0.159449,4.48583 3.91181,7.60276 8.37993,6.96142l72.8162 -10.4445z"/>
  <path class="fil15" d="M1285.68 1140.7l0.677953 19.0205 72.8162 -10.4445c4.46811,-0.640158 7.96064,-4.79646 7.80119,-9.28229l-0.388583 -10.898 -80.9068 11.6043z"/>
 </g>
</svg>
